<svg xmlns="http://www.w3.org/2000/svg" style="display: none;">

    <!--logo-->
    <symbol id="logo" viewBox="0 0 139 26">
        <title>Medianame</title>
        <path d="M137.955 26h-11.637c-.093 0-.14-.059-.14-.176l.035-24.732c0-.094.047-.14.141-.14h11.566c.094 0 .141.058.141.175v4.025c0 .094-.047.141-.141.141h-7.383v5.625h7.383c.094 0 .141.047.141.14l.035 4.079c0 .093-.047.14-.141.14h-7.418v6.293h7.418c.094 0 .141.059.141.176v4.113c0 .094-.047.141-.141.141ZM111.061 26h-4.079c-.093 0-.14-.059-.14-.176l.07-24.732c0-.094.047-.14.141-.14h4.394c.094 0 .176.046.246.14l3.287 4.746 3.27-4.746a.318.318 0 0 1 .264-.14h4.412c.105 0 .158.046.158.14l.07 24.732c0 .117-.047.176-.14.176h-4.078c-.094 0-.141-.059-.141-.176l-.035-18.369-3.78 5.485-3.744-5.485-.035 18.37c0 .116-.047.175-.14.175ZM90.266 25.824 94.73 1.092c.023-.094.082-.14.175-.14h5.221c.094 0 .152.046.176.14l4.289 24.732c.012.117-.035.176-.141.176h-3.99c-.117 0-.182-.059-.193-.176l-.387-2.637h-4.904l-.387 2.637c-.012.117-.07.176-.176.176h-4.008c-.094 0-.14-.059-.14-.176ZM97.314 9.23l-1.617 10.108h3.463L97.684 9.23l-.211-1.335-.159 1.335ZM78.7 26h-3.604c-.188 0-.282-.082-.282-.246L74.78 1.232c0-.187.094-.28.282-.28h3.251l6.082 14.185-.175-13.905c0-.187.105-.28.316-.28h3.569c.14 0 .21.093.21.28l.036 24.557c0 .14-.059.211-.176.211H85.01l-6.24-13.254.263 12.973c0 .187-.111.281-.334.281ZM58.203 25.824l4.465-24.732c.023-.094.082-.14.176-.14h5.22c.094 0 .153.046.176.14l4.29 24.732c.011.117-.036.176-.141.176h-3.99c-.118 0-.182-.059-.194-.176l-.387-2.637h-4.904l-.387 2.637c-.011.117-.07.176-.175.176h-4.008c-.094 0-.14-.059-.14-.176ZM65.252 9.23l-1.617 10.108h3.463L65.62 9.23l-.21-1.335-.159 1.335ZM56.111 26h-4.078c-.117 0-.176-.059-.176-.176l.036-24.732c0-.094.047-.14.14-.14h4.043c.094 0 .14.046.14.14l.036 24.732c0 .117-.047.176-.14.176ZM41.504 25.965 35.053 26c-.117 0-.176-.059-.176-.176l.07-24.732c0-.094.047-.14.14-.14L41.82.915c1.336-.035 2.543.27 3.621.914a7.24 7.24 0 0 1 2.602 2.62c.656 1.09.984 2.296.984 3.62v10.336c0 1.383-.334 2.649-1.002 3.797a7.825 7.825 0 0 1-2.707 2.725c-1.125.668-2.396 1.013-3.814 1.037Zm.316-20.742-2.513.035-.035 16.312h2.232c.89 0 1.64-.31 2.25-.931.61-.621.914-1.366.914-2.233V8.036c0-.763-.281-1.425-.844-1.987-.562-.574-1.23-.85-2.004-.826ZM31.537 26H19.9c-.093 0-.14-.059-.14-.176l.035-24.732c0-.094.047-.14.14-.14h11.567c.094 0 .14.058.14.175v4.025c0 .094-.046.141-.14.141h-7.383v5.625h7.383c.094 0 .14.047.14.14l.036 4.079c0 .093-.047.14-.14.14h-7.419v6.293h7.418c.094 0 .14.059.14.176v4.113c0 .094-.046.141-.14.141ZM4.643 26H.564c-.093 0-.14-.059-.14-.176l.07-24.732c0-.094.047-.14.14-.14H5.03c.094 0 .176.046.246.14l3.287 4.746 3.27-4.746a.318.318 0 0 1 .264-.14h4.412c.105 0 .158.046.158.14l.07 24.732c0 .117-.047.176-.14.176h-4.078c-.094 0-.141-.059-.141-.176l-.035-18.369-3.78 5.485-3.744-5.485-.035 18.37c0 .116-.047.175-.14.175Z" />
    </symbol>

    <!--icono hamburguesa-->
    <symbol id="ico-hamburguer" viewBox="0 0 22 18">
        <path d="M21.154 2H.846a.786.786 0 0 1-.598-.293A1.1 1.1 0 0 1 0 1C0 .735.09.48.248.293A.786.786 0 0 1 .846 0h20.308c.224 0 .44.105.598.293C21.911.48 22 .735 22 1c0 .265-.09.52-.248.707a.786.786 0 0 1-.598.293ZM21.154 10H.846a.786.786 0 0 1-.598-.293A1.1 1.1 0 0 1 0 9c0-.265.09-.52.248-.707A.786.786 0 0 1 .846 8h20.308c.224 0 .44.105.598.293.159.187.248.442.248.707 0 .265-.09.52-.248.707a.786.786 0 0 1-.598.293ZM21.154 18H.846a.786.786 0 0 1-.598-.293A1.1 1.1 0 0 1 0 17c0-.265.09-.52.248-.707A.786.786 0 0 1 .846 16h20.308c.224 0 .44.105.598.293.159.187.248.442.248.707 0 .265-.09.52-.248.707a.786.786 0 0 1-.598.293Z" />
    </symbol>

    <!--icono cerrar-->
    <symbol id="ico-close" viewBox="0 0 24 24">
        <path d="M20.7457 3.32851C20.3552 2.93798 19.722 2.93798 19.3315 3.32851L12.0371 10.6229L4.74275 3.32851C4.35223 2.93798 3.71906 2.93798 3.32854 3.32851C2.93801 3.71903 2.93801 4.3522 3.32854 4.74272L10.6229 12.0371L3.32856 19.3314C2.93803 19.722 2.93803 20.3551 3.32856 20.7457C3.71908 21.1362 4.35225 21.1362 4.74277 20.7457L12.0371 13.4513L19.3315 20.7457C19.722 21.1362 20.3552 21.1362 20.7457 20.7457C21.1362 20.3551 21.1362 19.722 20.7457 19.3315L13.4513 12.0371L20.7457 4.74272C21.1362 4.3522 21.1362 3.71903 20.7457 3.32851Z" />
    </symbol>
        
</svg>